/* XPM */
static char * gtkmonop_xpm[] = {
"20 20 12 1",
" 	c None",
".	c #000000",
"+	c #FFFFFF",
"@	c #FF0000",
"#	c #FFFF31",
"$	c #FF9900",
"%	c #009900",
"&	c #9C0062",
"*	c #0000FF",
"=	c #130913",
"-	c #9CCEFF",
";	c #623062",
"....................",
".+++@@@@@++#####+++.",
".+++@@@@@++#####+++.",
".+++@@@@@++#####+++.",
".$$$............%%%.",
".$$$.++++++++++.%%%.",
".$$$.++++++++++.%%%.",
".$$$.++++++++++.%%%.",
".$$$.++++++++++.%%%.",
".+++.++++++++++.+++.",
".+++.++++++++++.+++.",
".&&&.++++++++++.***.",
".&&&.++++++++++.***.",
".&&&.++++++++++.***.",
".&&&.++++++++++.***.",
".&&&...........=***.",
".+++-----++;;;;;+++.",
".+++-----++;;;;;+++.",
".+++-----++;;;;;+++.",
"...................."};
